<svg width="8" height="15" viewBox="0 0 8 15" fill="none" xmlns="http://www.w3.org/2000/svg">
<path d="M1.5 0.750488C1.89782 0.750488 2.27936 0.908524 2.56066 1.18983C2.84196 1.47113 3 1.85266 3 2.25049C3 2.64831 2.84196 3.02984 2.56066 3.31115C2.27936 3.59245 1.89782 3.75049 1.5 3.75049C1.10218 3.75049 0.720644 3.59245 0.43934 3.31115C0.158035 3.02984 0 2.64831 0 2.25049C0 1.85266 0.158035 1.47113 0.43934 1.18983C0.720644 0.908524 1.10218 0.750488 1.5 0.750488ZM1.5 6.25049C1.89782 6.25049 2.27936 6.40852 2.56066 6.68983C2.84196 6.97113 3 7.35266 3 7.75049C3 8.14831 2.84196 8.52984 2.56066 8.81115C2.27936 9.09245 1.89782 9.25049 1.5 9.25049C1.10218 9.25049 0.720644 9.09245 0.43934 8.81115C0.158035 8.52984 0 8.14831 0 7.75049C0 7.35266 0.158035 6.97113 0.43934 6.68983C0.720644 6.40852 1.10218 6.25049 1.5 6.25049ZM3 13.2505C3 12.8527 2.84196 12.4711 2.56066 12.1898C2.27936 11.9085 1.89782 11.7505 1.5 11.7505C1.10218 11.7505 0.720644 11.9085 0.43934 12.1898C0.158035 12.4711 0 12.8527 0 13.2505C0 13.6483 0.158035 14.0298 0.43934 14.3111C0.720644 14.5925 1.10218 14.7505 1.5 14.7505C1.89782 14.7505 2.27936 14.5925 2.56066 14.3111C2.84196 14.0298 3 13.6483 3 13.2505Z" fill="#CFCEC9"/>
<path d="M6.5 0.750488C6.89782 0.750488 7.27936 0.908524 7.56066 1.18983C7.84196 1.47113 8 1.85266 8 2.25049C8 2.64831 7.84196 3.02984 7.56066 3.31115C7.27936 3.59245 6.89782 3.75049 6.5 3.75049C6.10218 3.75049 5.72064 3.59245 5.43934 3.31115C5.15804 3.02984 5 2.64831 5 2.25049C5 1.85266 5.15804 1.47113 5.43934 1.18983C5.72064 0.908524 6.10218 0.750488 6.5 0.750488ZM6.5 6.25049C6.89782 6.25049 7.27936 6.40852 7.56066 6.68983C7.84196 6.97113 8 7.35266 8 7.75049C8 8.14831 7.84196 8.52984 7.56066 8.81115C7.27936 9.09245 6.89782 9.25049 6.5 9.25049C6.10218 9.25049 5.72064 9.09245 5.43934 8.81115C5.15804 8.52984 5 8.14831 5 7.75049C5 7.35266 5.15804 6.97113 5.43934 6.68983C5.72064 6.40852 6.10218 6.25049 6.5 6.25049ZM8 13.2505C8 12.8527 7.84196 12.4711 7.56066 12.1898C7.27936 11.9085 6.89782 11.7505 6.5 11.7505C6.10218 11.7505 5.72064 11.9085 5.43934 12.1898C5.15804 12.4711 5 12.8527 5 13.2505C5 13.6483 5.15804 14.0298 5.43934 14.3111C5.72064 14.5925 6.10218 14.7505 6.5 14.7505C6.89782 14.7505 7.27936 14.5925 7.56066 14.3111C7.84196 14.0298 8 13.6483 8 13.2505Z" fill="#CFCEC9"/>
</svg>
